# xmcd
# Track frame offsets:
# 150
# 15516
# 43383
# 55845
# 72898
#
# Disc length: 1186 seconds
# Revision: 0
# Processed by: cddbd v1.5.1PL0 Copyright (c) Steve Scherf et al.
# Submitted via: VisiTrax 2.9.9.202 - For more info visit www.synapsa.com
#
DISCID=3e04a005
DTITLE=Paolo Bonfanti - Io Non Sono Io
DYEAR=2004
DGENRE=
TTITLE0=Io Non Sono Io
TTITLE1=Jimmy e Maria
TTITLE2=Gesti Parole
TTITLE3=De Longo in Gio
TTITLE4=Baixinn-a
EXTD=
EXTT0=
EXTT1=
EXTT2=
EXTT3=
EXTT4=
PLAYORDER=
